<svg width="36" height="36" viewBox="0 0 36 36" fill="none" xmlns="http://www.w3.org/2000/svg">
<rect width="36" height="36" rx="6" fill="white"/>
<path d="M23.9501 24.25C25.4251 22.75 26.3334 20.6833 26.3334 18.4167C26.3334 13.8167 22.6001 10.0833 18.0001 10.0833C13.4001 10.0833 9.66675 13.8167 9.66675 18.4167C9.66675 20.6833 10.5667 22.7333 12.0334 24.2417" stroke="#757B82" stroke-width="1.5" stroke-miterlimit="10" stroke-linecap="round" stroke-linejoin="round"/>
<path d="M18 25.9167C19.5556 25.9167 20.8167 24.6556 20.8167 23.1C20.8167 21.5444 19.5556 20.2833 18 20.2833C16.4444 20.2833 15.1833 21.5444 15.1833 23.1C15.1833 24.6556 16.4444 25.9167 18 25.9167Z" stroke="#757B82" stroke-width="1.3" stroke-miterlimit="10" stroke-linecap="round" stroke-linejoin="round"/>
<path d="M20.7083 18H21.3333C22.0166 18 22.5833 17.4417 22.5833 16.75C22.5833 16.0667 22.0166 15.5 21.3333 15.5C20.6499 15.5 20.0833 16.0583 20.0833 16.75V17.375C20.0833 17.7167 20.3666 18 20.7083 18Z" stroke="#757B82" stroke-width="1.3" stroke-miterlimit="10" stroke-linecap="round" stroke-linejoin="round"/>
</svg>
