<svg width="36" height="36" viewBox="0 0 36 36" fill="none" xmlns="http://www.w3.org/2000/svg">
    <rect width="36" height="36" rx="6" fill="white"/>
    <path d="M9.66675 9.54166H11.1169C11.5802 9.54171 12.0203 9.7378 12.3357 10.0758H12.3367C12.4696 10.2235 12.5748 10.3868 12.6482 10.5631L12.7107 10.7438L12.8132 11.1081H23.6003C24.2178 11.1081 24.7869 11.3214 25.2351 11.7086L25.4197 11.8854C25.8246 12.329 26.0531 12.884 26.0671 13.4831L26.0603 13.7438L26.0593 13.7477L25.6101 19.9977L25.6091 20.0036C25.5335 21.2597 24.4232 22.2917 23.158 22.2917H14.283C13.5991 22.2915 12.9405 22.0005 12.4763 21.4948C12.012 20.9886 11.7768 20.3094 11.8318 19.6247L12.5222 11.3307L12.5232 11.3317C12.5629 10.9213 12.4156 10.5333 12.1531 10.2458C11.8777 9.94419 11.4984 9.79166 11.1082 9.79166H9.66675C9.6366 9.79166 9.60548 9.77921 9.57983 9.75357C9.55419 9.72793 9.54175 9.6968 9.54175 9.66666C9.54175 9.63651 9.55419 9.60539 9.57983 9.57974C9.60548 9.5541 9.6366 9.54166 9.66675 9.54166ZM12.7332 11.8317L12.0847 19.6422C12.0315 20.266 12.2387 20.86 12.655 21.319C13.0783 21.7857 13.6642 22.0327 14.283 22.0329H23.158C24.2186 22.0329 25.1613 21.209 25.3464 20.1803L25.3738 19.9713V19.9694L25.824 13.7194V13.7174C25.8659 13.0987 25.6672 12.493 25.241 12.0426H25.2419C24.8187 11.5868 24.2334 11.3415 23.6082 11.3415H12.7332V11.8317Z" fill="#757B82" stroke="#757B82"/>
    <mask id="path-3-inside-1_4091_3489" fill="white">
        <path d="M21.5417 26.9583C20.625 26.9583 19.875 26.2083 19.875 25.2917C19.875 24.375 20.625 23.625 21.5417 23.625C22.4583 23.625 23.2083 24.375 23.2083 25.2917C23.2083 26.2083 22.4583 26.9583 21.5417 26.9583ZM21.5417 24.875C21.3083 24.875 21.125 25.0583 21.125 25.2917C21.125 25.525 21.3083 25.7083 21.5417 25.7083C21.775 25.7083 21.9583 25.525 21.9583 25.2917C21.9583 25.0583 21.775 24.875 21.5417 24.875Z"/>
    </mask>
    <path d="M21.5417 26.9583C20.625 26.9583 19.875 26.2083 19.875 25.2917C19.875 24.375 20.625 23.625 21.5417 23.625C22.4583 23.625 23.2083 24.375 23.2083 25.2917C23.2083 26.2083 22.4583 26.9583 21.5417 26.9583ZM21.5417 24.875C21.3083 24.875 21.125 25.0583 21.125 25.2917C21.125 25.525 21.3083 25.7083 21.5417 25.7083C21.775 25.7083 21.9583 25.525 21.9583 25.2917C21.9583 25.0583 21.775 24.875 21.5417 24.875Z" fill="#757B82"/>
    <path d="M21.5417 26.9583V25.6583C21.343 25.6583 21.175 25.4904 21.175 25.2917H19.875H18.575C18.575 26.9263 19.907 28.2583 21.5417 28.2583V26.9583ZM19.875 25.2917H21.175C21.175 25.093 21.343 24.925 21.5417 24.925V23.625V22.325C19.907 22.325 18.575 23.657 18.575 25.2917H19.875ZM21.5417 23.625V24.925C21.7404 24.925 21.9083 25.093 21.9083 25.2917H23.2083H24.5083C24.5083 23.657 23.1763 22.325 21.5417 22.325V23.625ZM23.2083 25.2917H21.9083C21.9083 25.4904 21.7404 25.6583 21.5417 25.6583V26.9583V28.2583C23.1763 28.2583 24.5083 26.9263 24.5083 25.2917H23.2083ZM21.5417 24.875V23.575C20.5904 23.575 19.825 24.3404 19.825 25.2917H21.125H22.425C22.425 25.7763 22.0263 26.175 21.5417 26.175V24.875ZM21.125 25.2917H19.825C19.825 26.243 20.5904 27.0083 21.5417 27.0083V25.7083V24.4083C22.0263 24.4083 22.425 24.807 22.425 25.2917H21.125ZM21.5417 25.7083V27.0083C22.493 27.0083 23.2583 26.243 23.2583 25.2917H21.9583H20.6583C20.6583 24.807 21.057 24.4083 21.5417 24.4083V25.7083ZM21.9583 25.2917H23.2583C23.2583 24.3404 22.493 23.575 21.5417 23.575V24.875V26.175C21.057 26.175 20.6583 25.7763 20.6583 25.2917H21.9583Z" fill="#757B82" mask="url(#path-3-inside-1_4091_3489)"/>
    <mask id="path-5-inside-2_4091_3489" fill="white">
        <path d="M14.8749 26.9583C13.9583 26.9583 13.2083 26.2083 13.2083 25.2917C13.2083 24.375 13.9583 23.625 14.8749 23.625C15.7916 23.625 16.5416 24.375 16.5416 25.2917C16.5416 26.2083 15.7916 26.9583 14.8749 26.9583ZM14.8749 24.875C14.6416 24.875 14.4583 25.0583 14.4583 25.2917C14.4583 25.525 14.6416 25.7083 14.8749 25.7083C15.1083 25.7083 15.2916 25.525 15.2916 25.2917C15.2916 25.0583 15.1083 24.875 14.8749 24.875Z"/>
    </mask>
    <path d="M14.8749 26.9583C13.9583 26.9583 13.2083 26.2083 13.2083 25.2917C13.2083 24.375 13.9583 23.625 14.8749 23.625C15.7916 23.625 16.5416 24.375 16.5416 25.2917C16.5416 26.2083 15.7916 26.9583 14.8749 26.9583ZM14.8749 24.875C14.6416 24.875 14.4583 25.0583 14.4583 25.2917C14.4583 25.525 14.6416 25.7083 14.8749 25.7083C15.1083 25.7083 15.2916 25.525 15.2916 25.2917C15.2916 25.0583 15.1083 24.875 14.8749 24.875Z" fill="#757B82"/>
    <path d="M14.8749 26.9583V25.6583C14.6762 25.6583 14.5083 25.4904 14.5083 25.2917H13.2083H11.9083C11.9083 26.9263 13.2403 28.2583 14.8749 28.2583V26.9583ZM13.2083 25.2917H14.5083C14.5083 25.093 14.6762 24.925 14.8749 24.925V23.625V22.325C13.2403 22.325 11.9083 23.657 11.9083 25.2917H13.2083ZM14.8749 23.625V24.925C15.0736 24.925 15.2416 25.093 15.2416 25.2917H16.5416H17.8416C17.8416 23.657 16.5096 22.325 14.8749 22.325V23.625ZM16.5416 25.2917H15.2416C15.2416 25.4904 15.0736 25.6583 14.8749 25.6583V26.9583V28.2583C16.5096 28.2583 17.8416 26.9263 17.8416 25.2917H16.5416ZM14.8749 24.875V23.575C13.9236 23.575 13.1583 24.3404 13.1583 25.2917H14.4583H15.7583C15.7583 25.7763 15.3596 26.175 14.8749 26.175V24.875ZM14.4583 25.2917H13.1583C13.1583 26.243 13.9236 27.0083 14.8749 27.0083V25.7083V24.4083C15.3596 24.4083 15.7583 24.807 15.7583 25.2917H14.4583ZM14.8749 25.7083V27.0083C15.8262 27.0083 16.5916 26.243 16.5916 25.2917H15.2916H13.9916C13.9916 24.807 14.3903 24.4083 14.8749 24.4083V25.7083ZM15.2916 25.2917H16.5916C16.5916 24.3404 15.8262 23.575 14.8749 23.575V24.875V26.175C14.3903 26.175 13.9916 25.7763 13.9916 25.2917H15.2916Z" fill="#757B82" mask="url(#path-5-inside-2_4091_3489)"/>
    <path d="M15.5 14.5417H25.5C25.5301 14.5417 25.5613 14.5541 25.5869 14.5797C25.6126 14.6054 25.625 14.6365 25.625 14.6667C25.625 14.6968 25.6126 14.7279 25.5869 14.7536C25.5613 14.7792 25.5301 14.7917 25.5 14.7917H15.5C15.4699 14.7917 15.4387 14.7792 15.4131 14.7536C15.3874 14.7279 15.375 14.6968 15.375 14.6667C15.375 14.6365 15.3874 14.6054 15.4131 14.5797C15.4387 14.5541 15.4699 14.5417 15.5 14.5417Z" fill="#757B82" stroke="#757B82"/>
</svg>
